<svg width="227" height="252" viewBox="0 0 227 252" fill="none" xmlns="http://www.w3.org/2000/svg">
<path d="M226.743 173.202C219.797 180.29 208.973 181.866 200.294 177.054L109.905 125.697L200.551 74.3394C209.233 69.5457 220.045 71.1203 227 78.1912C226.743 78.1912 226.743 179.365 226.743 173.202Z" fill="url(#paint0_linear_525_9623)"/>
<path d="M11.5555 199.393C9.0795 190.154 13.2081 180.414 21.5702 175.769L109.905 125.695L200.551 177.053C209.233 181.847 220.045 180.272 227 173.201C226.878 184.452 220.692 194.761 210.822 200.164L127.623 247.413C117.67 253.063 105.478 253.063 95.5249 247.413L11.5555 199.393Z" fill="url(#paint1_linear_525_9623)"/>
<path d="M200.551 74.3385L21.5702 175.769C13.0962 180.648 11.0419 190.406 13.353 199.394C3.85183 193.745 1.20547e-05 183.473 1.29976e-05 172.688L2.12364e-05 78.4471C2.22241e-05 67.1485 4.36541 56.877 14.1233 51.2276L96.2953 4.23558C106.066 -1.41181 118.109 -1.41181 127.88 4.23558L211.079 51.2277C220.725 56.8233 226.759 67.0412 227 78.1903C220.045 71.1195 209.233 69.5449 200.551 74.3385Z" fill="url(#paint2_linear_525_9623)"/>
<defs>
<linearGradient id="paint0_linear_525_9623" x1="167.283" y1="46.7206" x2="122.959" y2="136.568" gradientUnits="userSpaceOnUse">
<stop stop-color="#00DAD9"/>
<stop offset="1" stop-color="#095FA7"/>
</linearGradient>
<linearGradient id="paint1_linear_525_9623" x1="234.188" y1="219.482" x2="213.121" y2="112.015" gradientUnits="userSpaceOnUse">
<stop stop-color="#0BF7DF"/>
<stop offset="1" stop-color="#0095FF"/>
</linearGradient>
<linearGradient id="paint2_linear_525_9623" x1="65.8003" y1="251.376" x2="251.073" y2="83.2424" gradientUnits="userSpaceOnUse">
<stop stop-color="#00FCC6"/>
<stop offset="1" stop-color="#0095FF"/>
</linearGradient>
</defs>
</svg>
