<svg width="534" height="110" viewBox="0 0 534 110" fill="none" xmlns="http://www.w3.org/2000/svg">
<path d="M98.8802 75.5316C95.8511 78.6224 91.1309 79.3098 87.3461 77.2114L47.9284 54.815L87.458 32.4185C91.2443 30.3281 95.9594 31.0148 98.9922 34.0983C98.8802 34.0983 98.8802 78.2192 98.8802 75.5316Z" fill="url(#paint0_linear_525_9622)"/>
<path d="M5.03921 86.9532C3.95946 82.9239 5.75992 78.6767 9.40652 76.6509L47.9284 54.8144L87.458 77.2108C91.2443 79.3012 95.9594 78.6146 98.9922 75.5311C98.9389 80.4376 96.2415 84.9332 91.9373 87.2892L55.6551 107.894C51.3145 110.358 45.998 110.358 41.6574 107.894L5.03921 86.9532Z" fill="url(#paint1_linear_525_9622)"/>
<path d="M87.458 32.4182L9.4065 76.6511C5.71109 78.7788 4.81523 83.0341 5.82307 86.9535C1.67973 84.4899 -1.59804e-06 80.0106 -1.18687e-06 75.3073L2.40598e-06 34.2099C2.83674e-06 29.2827 1.9037 24.8034 6.15902 22.3398L41.9933 1.84709C46.2543 -0.615671 51.5061 -0.615671 55.7671 1.84709L92.0493 22.3398C96.2559 24.78 98.887 29.2359 98.9922 34.0979C95.9594 31.0144 91.2443 30.3278 87.458 32.4182Z" fill="url(#paint2_linear_525_9622)"/>
<path d="M151.976 79.011C148.136 79.011 144.766 78.3283 141.864 76.963C139.006 75.555 136.595 73.699 134.632 71.395C132.712 69.0483 131.262 66.4456 130.28 63.587C129.342 60.6856 128.872 57.7203 128.872 54.691C128.872 51.6616 129.342 48.6963 130.28 45.795C131.262 42.8936 132.712 40.291 134.632 37.987C136.595 35.6403 139.006 33.7843 141.864 32.419C144.766 31.0536 148.136 30.371 151.976 30.371C155.176 30.371 157.928 30.7763 160.232 31.587C162.536 32.3976 164.456 33.443 165.992 34.723C167.528 36.003 168.744 37.3683 169.64 38.819C170.579 40.2696 171.283 41.635 171.752 42.915C172.222 44.195 172.52 45.2403 172.648 46.051C172.819 46.8616 172.904 47.267 172.904 47.267H164.264C164.264 47.267 164.179 46.9683 164.008 46.371C163.88 45.7736 163.582 45.027 163.112 44.131C162.686 43.1923 162.024 42.275 161.128 41.379C160.232 40.483 159.038 39.7363 157.544 39.139C156.094 38.5416 154.28 38.243 152.104 38.243C149.715 38.243 147.624 38.7123 145.832 39.651C144.04 40.547 142.547 41.7843 141.352 43.363C140.158 44.9416 139.262 46.7123 138.664 48.675C138.11 50.6376 137.832 52.643 137.832 54.691C137.832 56.739 138.11 58.7443 138.664 60.707C139.262 62.627 140.158 64.3763 141.352 65.955C142.547 67.5336 144.04 68.7923 145.832 69.731C147.624 70.6696 149.715 71.139 152.104 71.139C154.28 71.139 156.094 70.8403 157.544 70.243C159.038 69.603 160.232 68.835 161.128 67.939C162.024 67.043 162.686 66.147 163.112 65.251C163.582 64.355 163.88 63.6083 164.008 63.011C164.179 62.371 164.264 62.051 164.264 62.051H172.904C172.904 62.051 172.819 62.4563 172.648 63.267C172.52 64.0776 172.222 65.1443 171.752 66.467C171.283 67.747 170.579 69.1123 169.64 70.563C168.744 71.971 167.528 73.3363 165.992 74.659C164.456 75.939 162.536 76.9843 160.232 77.795C157.928 78.6056 155.176 79.011 151.976 79.011ZM180.413 78.371V31.011H198.845C202.258 31.011 205.159 31.651 207.549 32.931C209.981 34.1683 211.815 35.875 213.053 38.051C214.333 40.1843 214.973 42.595 214.973 45.283C214.973 48.3123 214.162 51.0216 212.541 53.411C210.919 55.7576 208.573 57.4643 205.501 58.531L216.381 78.371H206.717L196.605 59.555H189.117V78.371H180.413ZM198.717 38.563H189.117V52.451H198.717C201.149 52.451 203.005 51.7683 204.285 50.403C205.565 48.995 206.205 47.3523 206.205 45.475C206.205 43.5976 205.565 41.9763 204.285 40.611C203.005 39.2456 201.149 38.563 198.717 38.563ZM225.038 78.371V31.011H233.742V78.371H225.038ZM255.583 78.371V38.563H240.991V31.011H278.879V38.563H264.287V78.371H255.583ZM286.1 78.371V31.011H317.844V38.563H294.804V50.595H314.964V57.955H294.804V70.819H318.164V78.371H286.1ZM326.663 78.371V31.011H345.095C348.508 31.011 351.409 31.651 353.799 32.931C356.231 34.1683 358.065 35.875 359.303 38.051C360.583 40.1843 361.223 42.595 361.223 45.283C361.223 48.3123 360.412 51.0216 358.791 53.411C357.169 55.7576 354.823 57.4643 351.751 58.531L362.631 78.371H352.967L342.855 59.555H335.367V78.371H326.663ZM344.967 38.563H335.367V52.451H344.967C347.399 52.451 349.255 51.7683 350.535 50.403C351.815 48.995 352.455 47.3523 352.455 45.475C352.455 43.5976 351.815 41.9763 350.535 40.611C349.255 39.2456 347.399 38.563 344.967 38.563ZM371.288 78.371V31.011H379.992V78.371H371.288ZM411.113 79.011C407.231 79.011 403.817 78.3283 400.873 76.963C397.929 75.555 395.455 73.699 393.449 71.395C391.487 69.0483 389.993 66.4243 388.969 63.523C387.988 60.6216 387.497 57.6563 387.497 54.627C387.497 51.5976 387.988 48.6536 388.969 45.795C389.993 42.8936 391.487 40.291 393.449 37.987C395.455 35.683 397.929 33.8483 400.873 32.483C403.817 31.075 407.231 30.371 411.113 30.371C414.996 30.371 418.409 31.075 421.353 32.483C424.297 33.8483 426.751 35.683 428.713 37.987C430.719 40.291 432.212 42.8936 433.193 45.795C434.217 48.6536 434.729 51.5976 434.729 54.627C434.729 57.6563 434.217 60.6216 433.193 63.523C432.212 66.4243 430.719 69.0483 428.713 71.395C426.751 73.699 424.297 75.555 421.353 76.963C418.409 78.3283 414.996 79.011 411.113 79.011ZM411.113 71.139C414.313 71.139 416.98 70.3496 419.113 68.771C421.289 67.1923 422.932 65.1443 424.041 62.627C425.193 60.1096 425.769 57.443 425.769 54.627C425.769 51.8536 425.193 49.2296 424.041 46.755C422.932 44.2376 421.289 42.1896 419.113 40.611C416.98 39.0323 414.313 38.243 411.113 38.243C407.913 38.243 405.225 39.0323 403.049 40.611C400.873 42.1896 399.231 44.2376 398.121 46.755C397.012 49.2296 396.457 51.8536 396.457 54.627C396.457 57.443 397.012 60.1096 398.121 62.627C399.231 65.1443 400.873 67.1923 403.049 68.771C405.225 70.3496 407.913 71.139 411.113 71.139ZM442.225 78.371V31.011H450.161L471.921 63.139V31.011H480.561V78.371H472.625L450.865 46.819V78.371H442.225ZM488.444 78.371L503.292 54.691L488.444 31.011H498.812L509.244 48.291L519.74 31.011H530.044L515.068 54.691L530.108 78.371H519.74L509.244 61.091L498.812 78.371H488.444Z" fill="white"/>
<defs>
<linearGradient id="paint0_linear_525_9622" x1="72.9501" y1="20.3743" x2="53.6209" y2="59.5559" gradientUnits="userSpaceOnUse">
<stop stop-color="#00DAD9"/>
<stop offset="1" stop-color="#095FA7"/>
</linearGradient>
<linearGradient id="paint1_linear_525_9622" x1="102.127" y1="95.7135" x2="92.9396" y2="48.8487" gradientUnits="userSpaceOnUse">
<stop stop-color="#0BF7DF"/>
<stop offset="1" stop-color="#0095FF"/>
</linearGradient>
<linearGradient id="paint2_linear_525_9622" x1="28.6948" y1="109.622" x2="109.49" y2="36.3011" gradientUnits="userSpaceOnUse">
<stop stop-color="#00FCC6"/>
<stop offset="1" stop-color="#0095FF"/>
</linearGradient>
</defs>
</svg>
