<svg width="99" height="110" viewBox="0 0 99 110" fill="none" xmlns="http://www.w3.org/2000/svg">
<path d="M98.8802 75.5317C95.8511 78.6224 91.1309 79.3098 87.3461 77.2114L47.9284 54.815L87.458 32.4186C91.2443 30.3282 95.9594 31.0148 98.9922 34.0984C98.8802 34.0984 98.8802 78.2193 98.8802 75.5317Z" fill="url(#paint0_linear_525_9629)"/>
<path d="M5.03921 86.9533C3.95946 82.924 5.75992 78.6767 9.40652 76.651L47.9284 54.8145L87.458 77.2109C91.2443 79.3013 95.9594 78.6147 98.9922 75.5311C98.9389 80.4376 96.2415 84.9333 91.9373 87.2893L55.6551 107.894C51.3145 110.358 45.998 110.358 41.6574 107.894L5.03921 86.9533Z" fill="url(#paint1_linear_525_9629)"/>
<path d="M87.458 32.4183L9.4065 76.6513C5.71109 78.7789 4.81523 83.0342 5.82307 86.9536C1.67973 84.49 -1.59804e-06 80.0107 -1.18687e-06 75.3075L2.40598e-06 34.2101C2.83674e-06 29.2828 1.9037 24.8036 6.15902 22.3399L41.9933 1.84723C46.2543 -0.615533 51.5061 -0.615533 55.7671 1.84723L92.0493 22.34C96.2559 24.7802 98.887 29.236 98.9922 34.0981C95.9594 31.0146 91.2443 30.3279 87.458 32.4183Z" fill="url(#paint2_linear_525_9629)"/>
<defs>
<linearGradient id="paint0_linear_525_9629" x1="72.9501" y1="20.3744" x2="53.6209" y2="59.556" gradientUnits="userSpaceOnUse">
<stop stop-color="#00DAD9"/>
<stop offset="1" stop-color="#095FA7"/>
</linearGradient>
<linearGradient id="paint1_linear_525_9629" x1="102.127" y1="95.7136" x2="92.9396" y2="48.8487" gradientUnits="userSpaceOnUse">
<stop stop-color="#0BF7DF"/>
<stop offset="1" stop-color="#0095FF"/>
</linearGradient>
<linearGradient id="paint2_linear_525_9629" x1="28.6948" y1="109.622" x2="109.49" y2="36.3012" gradientUnits="userSpaceOnUse">
<stop stop-color="#00FCC6"/>
<stop offset="1" stop-color="#0095FF"/>
</linearGradient>
</defs>
</svg>
